<svg width="290" height="443" viewBox="0 0 290 443" fill="none" xmlns="http://www.w3.org/2000/svg">
    <rect width="250" height="350" rx="10" fill="#6701CE" />
    <rect x="20" y="20" width="250" height="350" rx="10" fill="#015FCE" />
    <rect x="40" y="40" width="250" height="402" rx="10" fill="#3601CE" />
    <path d="M8.50391 11.1973C7.53906 10.9199 6.83594 10.5801 6.39453 10.1777C5.95703 9.77148 5.73828 9.27148 5.73828 8.67773C5.73828 8.00586 6.00586 7.45117 6.54102 7.01367C7.08008 6.57227 7.7793 6.35156 8.63867 6.35156C9.22461 6.35156 9.74609 6.46484 10.2031 6.69141C10.6641 6.91797 11.0195 7.23047 11.2695 7.62891C11.5234 8.02734 11.6504 8.46289 11.6504 8.93555H10.5195C10.5195 8.41992 10.3555 8.01562 10.0273 7.72266C9.69922 7.42578 9.23633 7.27734 8.63867 7.27734C8.08398 7.27734 7.65039 7.40039 7.33789 7.64648C7.0293 7.88867 6.875 8.22656 6.875 8.66016C6.875 9.00781 7.02148 9.30273 7.31445 9.54492C7.61133 9.7832 8.11328 10.002 8.82031 10.2012C9.53125 10.4004 10.0859 10.6211 10.4844 10.8633C10.8867 11.1016 11.1836 11.3809 11.375 11.7012C11.5703 12.0215 11.668 12.3984 11.668 12.832C11.668 13.5234 11.3984 14.0781 10.8594 14.4961C10.3203 14.9102 9.59961 15.1172 8.69727 15.1172C8.11133 15.1172 7.56445 15.0059 7.05664 14.7832C6.54883 14.5566 6.15625 14.248 5.87891 13.8574C5.60547 13.4668 5.46875 13.0234 5.46875 12.5273H6.59961C6.59961 13.043 6.78906 13.4512 7.16797 13.752C7.55078 14.0488 8.06055 14.1973 8.69727 14.1973C9.29102 14.1973 9.74609 14.0762 10.0625 13.834C10.3789 13.5918 10.5371 13.2617 10.5371 12.8438C10.5371 12.4258 10.3906 12.1035 10.0977 11.877C9.80469 11.6465 9.27344 11.4199 8.50391 11.1973ZM14.123 15H13.0391V8.66016H14.123V15ZM12.9512 6.97852C12.9512 6.80273 13.0039 6.6543 13.1094 6.5332C13.2188 6.41211 13.3789 6.35156 13.5898 6.35156C13.8008 6.35156 13.9609 6.41211 14.0703 6.5332C14.1797 6.6543 14.2344 6.80273 14.2344 6.97852C14.2344 7.1543 14.1797 7.30078 14.0703 7.41797C13.9609 7.53516 13.8008 7.59375 13.5898 7.59375C13.3789 7.59375 13.2188 7.53516 13.1094 7.41797C13.0039 7.30078 12.9512 7.1543 12.9512 6.97852ZM15.6055 11.7773C15.6055 10.7891 15.834 10.0039 16.291 9.42188C16.748 8.83594 17.3535 8.54297 18.1074 8.54297C18.8809 8.54297 19.4844 8.81641 19.918 9.36328L19.9707 8.66016H20.9609V14.8477C20.9609 15.668 20.7168 16.3145 20.2285 16.7871C19.7441 17.2598 19.0918 17.4961 18.2715 17.4961C17.8145 17.4961 17.3672 17.3984 16.9297 17.2031C16.4922 17.0078 16.1582 16.7402 15.9277 16.4004L16.4902 15.75C16.9551 16.3242 17.5234 16.6113 18.1953 16.6113C18.7227 16.6113 19.1328 16.4629 19.4258 16.166C19.7227 15.8691 19.8711 15.4512 19.8711 14.9121V14.3672C19.4375 14.8672 18.8457 15.1172 18.0957 15.1172C17.3535 15.1172 16.752 14.8184 16.291 14.2207C15.834 13.623 15.6055 12.8086 15.6055 11.7773ZM16.6953 11.9004C16.6953 12.6152 16.8418 13.1777 17.1348 13.5879C17.4277 13.9941 17.8379 14.1973 18.3652 14.1973C19.0488 14.1973 19.5508 13.8867 19.8711 13.2656V10.3711C19.5391 9.76562 19.041 9.46289 18.377 9.46289C17.8496 9.46289 17.4375 9.66797 17.1406 10.0781C16.8438 10.4883 16.6953 11.0957 16.6953 11.9004ZM23.627 8.66016L23.6621 9.45703C24.1465 8.84766 24.7793 8.54297 25.5605 8.54297C26.9004 8.54297 27.5762 9.29883 27.5879 10.8105V15H26.5039V10.8047C26.5 10.3477 26.3945 10.0098 26.1875 9.79102C25.9844 9.57227 25.666 9.46289 25.2324 9.46289C24.8809 9.46289 24.5723 9.55664 24.3066 9.74414C24.041 9.93164 23.834 10.1777 23.6855 10.4824V15H22.6016V8.66016H23.627ZM33.1367 14.373C32.7148 14.8691 32.0957 15.1172 31.2793 15.1172C30.6035 15.1172 30.0879 14.9219 29.7324 14.5312C29.3809 14.1367 29.2031 13.5547 29.1992 12.7852V8.66016H30.2832V12.7559C30.2832 13.7168 30.6738 14.1973 31.4551 14.1973C32.2832 14.1973 32.834 13.8887 33.1074 13.2715V8.66016H34.1914V15H33.1602L33.1367 14.373ZM41.1992 11.9004C41.1992 12.8652 40.9785 13.6426 40.5371 14.2324C40.0957 14.8223 39.498 15.1172 38.7441 15.1172C37.9746 15.1172 37.3691 14.873 36.9277 14.3848V17.4375H35.8438V8.66016H36.834L36.8867 9.36328C37.3281 8.81641 37.9414 8.54297 38.7266 8.54297C39.4883 8.54297 40.0898 8.83008 40.5312 9.4043C40.9766 9.97852 41.1992 10.7773 41.1992 11.8008V11.9004ZM40.1152 11.7773C40.1152 11.0625 39.9629 10.498 39.6582 10.084C39.3535 9.66992 38.9355 9.46289 38.4043 9.46289C37.748 9.46289 37.2559 9.75391 36.9277 10.3359V13.3652C37.252 13.9434 37.748 14.2324 38.416 14.2324C38.9355 14.2324 39.3477 14.0273 39.6523 13.6172C39.9609 13.2031 40.1152 12.5898 40.1152 11.7773ZM46.8535 11.6602V15H45.7285V6.46875H48.875C49.8086 6.46875 50.5391 6.70703 51.0664 7.18359C51.5977 7.66016 51.8633 8.29102 51.8633 9.07617C51.8633 9.9043 51.6035 10.543 51.084 10.9922C50.5684 11.4375 49.8281 11.6602 48.8633 11.6602H46.8535ZM46.8535 10.7402H48.875C49.4766 10.7402 49.9375 10.5996 50.2578 10.3184C50.5781 10.0332 50.7383 9.62305 50.7383 9.08789C50.7383 8.58008 50.5781 8.17383 50.2578 7.86914C49.9375 7.56445 49.498 7.40625 48.9395 7.39453H46.8535V10.7402ZM56.9727 15C56.9102 14.875 56.8594 14.6523 56.8203 14.332C56.3164 14.8555 55.7148 15.1172 55.0156 15.1172C54.3906 15.1172 53.877 14.9414 53.4746 14.5898C53.0762 14.2344 52.877 13.7852 52.877 13.2422C52.877 12.582 53.127 12.0703 53.627 11.707C54.1309 11.3398 54.8379 11.1562 55.748 11.1562H56.8027V10.6582C56.8027 10.2793 56.6895 9.97852 56.4629 9.75586C56.2363 9.5293 55.9023 9.41602 55.4609 9.41602C55.0742 9.41602 54.75 9.51367 54.4883 9.70898C54.2266 9.9043 54.0957 10.1406 54.0957 10.418H53.0059C53.0059 10.1016 53.1172 9.79688 53.3398 9.50391C53.5664 9.20703 53.8711 8.97266 54.2539 8.80078C54.6406 8.62891 55.0645 8.54297 55.5254 8.54297C56.2559 8.54297 56.8281 8.72656 57.2422 9.09375C57.6562 9.45703 57.8711 9.95898 57.8867 10.5996V13.5176C57.8867 14.0996 57.9609 14.5625 58.1094 14.9062V15H56.9727ZM55.1738 14.1738C55.5137 14.1738 55.8359 14.0859 56.1406 13.9102C56.4453 13.7344 56.666 13.5059 56.8027 13.2246V11.9238H55.9531C54.625 11.9238 53.9609 12.3125 53.9609 13.0898C53.9609 13.4297 54.0742 13.6953 54.3008 13.8867C54.5273 14.0781 54.8184 14.1738 55.1738 14.1738ZM59.3281 11.7773C59.3281 10.7891 59.5566 10.0039 60.0137 9.42188C60.4707 8.83594 61.0762 8.54297 61.8301 8.54297C62.6035 8.54297 63.207 8.81641 63.6406 9.36328L63.6934 8.66016H64.6836V14.8477C64.6836 15.668 64.4395 16.3145 63.9512 16.7871C63.4668 17.2598 62.8145 17.4961 61.9941 17.4961C61.5371 17.4961 61.0898 17.3984 60.6523 17.2031C60.2148 17.0078 59.8809 16.7402 59.6504 16.4004L60.2129 15.75C60.6777 16.3242 61.2461 16.6113 61.918 16.6113C62.4453 16.6113 62.8555 16.4629 63.1484 16.166C63.4453 15.8691 63.5938 15.4512 63.5938 14.9121V14.3672C63.1602 14.8672 62.5684 15.1172 61.8184 15.1172C61.0762 15.1172 60.4746 14.8184 60.0137 14.2207C59.5566 13.623 59.3281 12.8086 59.3281 11.7773ZM60.418 11.9004C60.418 12.6152 60.5645 13.1777 60.8574 13.5879C61.1504 13.9941 61.5605 14.1973 62.0879 14.1973C62.7715 14.1973 63.2734 13.8867 63.5938 13.2656V10.3711C63.2617 9.76562 62.7637 9.46289 62.0996 9.46289C61.5723 9.46289 61.1602 9.66797 60.8633 10.0781C60.5664 10.4883 60.418 11.0957 60.418 11.9004ZM68.9551 15.1172C68.0957 15.1172 67.3965 14.8359 66.8574 14.2734C66.3184 13.707 66.0488 12.9512 66.0488 12.0059V11.8066C66.0488 11.1777 66.168 10.6172 66.4062 10.125C66.6484 9.62891 66.9844 9.24219 67.4141 8.96484C67.8477 8.68359 68.3164 8.54297 68.8203 8.54297C69.6445 8.54297 70.2852 8.81445 70.7422 9.35742C71.1992 9.90039 71.4277 10.6777 71.4277 11.6895V12.1406H67.1328C67.1484 12.7656 67.3301 13.2715 67.6777 13.6582C68.0293 14.041 68.4746 14.2324 69.0137 14.2324C69.3965 14.2324 69.7207 14.1543 69.9863 13.998C70.252 13.8418 70.4844 13.6348 70.6836 13.377L71.3457 13.8926C70.8145 14.709 70.0176 15.1172 68.9551 15.1172ZM68.8203 9.43359C68.3828 9.43359 68.0156 9.59375 67.7188 9.91406C67.4219 10.2305 67.2383 10.6758 67.168 11.25H70.3438V11.168C70.3125 10.6172 70.1641 10.1914 69.8984 9.89062C69.6328 9.58594 69.2734 9.43359 68.8203 9.43359Z" fill="black" />
    <path d="M37.1211 34.0801H41.1641V35H35.9902V26.4688H37.1211V34.0801ZM41.9902 31.7715C41.9902 31.1504 42.1113 30.5918 42.3535 30.0957C42.5996 29.5996 42.9395 29.2168 43.373 28.9473C43.8105 28.6777 44.3086 28.543 44.8672 28.543C45.7305 28.543 46.4277 28.8418 46.959 29.4395C47.4941 30.0371 47.7617 30.832 47.7617 31.8242V31.9004C47.7617 32.5176 47.6426 33.0723 47.4043 33.5645C47.1699 34.0527 46.832 34.4336 46.3906 34.707C45.9531 34.9805 45.4492 35.1172 44.8789 35.1172C44.0195 35.1172 43.3223 34.8184 42.7871 34.2207C42.2559 33.623 41.9902 32.832 41.9902 31.8477V31.7715ZM43.0801 31.9004C43.0801 32.6035 43.2422 33.168 43.5664 33.5938C43.8945 34.0195 44.332 34.2324 44.8789 34.2324C45.4297 34.2324 45.8672 34.0176 46.1914 33.5879C46.5156 33.1543 46.6777 32.5488 46.6777 31.7715C46.6777 31.0762 46.5117 30.5137 46.1797 30.084C45.8516 29.6504 45.4141 29.4336 44.8672 29.4336C44.332 29.4336 43.9004 29.6465 43.5723 30.0723C43.2441 30.498 43.0801 31.1074 43.0801 31.9004ZM48.8633 31.7773C48.8633 30.7891 49.0918 30.0039 49.5488 29.4219C50.0059 28.8359 50.6113 28.543 51.3652 28.543C52.1387 28.543 52.7422 28.8164 53.1758 29.3633L53.2285 28.6602H54.2188V34.8477C54.2188 35.668 53.9746 36.3145 53.4863 36.7871C53.002 37.2598 52.3496 37.4961 51.5293 37.4961C51.0723 37.4961 50.625 37.3984 50.1875 37.2031C49.75 37.0078 49.416 36.7402 49.1855 36.4004L49.748 35.75C50.2129 36.3242 50.7812 36.6113 51.4531 36.6113C51.9805 36.6113 52.3906 36.4629 52.6836 36.166C52.9805 35.8691 53.1289 35.4512 53.1289 34.9121V34.3672C52.6953 34.8672 52.1035 35.1172 51.3535 35.1172C50.6113 35.1172 50.0098 34.8184 49.5488 34.2207C49.0918 33.623 48.8633 32.8086 48.8633 31.7773ZM49.9531 31.9004C49.9531 32.6152 50.0996 33.1777 50.3926 33.5879C50.6855 33.9941 51.0957 34.1973 51.623 34.1973C52.3066 34.1973 52.8086 33.8867 53.1289 33.2656V30.3711C52.7969 29.7656 52.2988 29.4629 51.6348 29.4629C51.1074 29.4629 50.6953 29.668 50.3984 30.0781C50.1016 30.4883 49.9531 31.0957 49.9531 31.9004ZM57.0371 35H55.9531V28.6602H57.0371V35ZM55.8652 26.9785C55.8652 26.8027 55.918 26.6543 56.0234 26.5332C56.1328 26.4121 56.293 26.3516 56.5039 26.3516C56.7148 26.3516 56.875 26.4121 56.9844 26.5332C57.0938 26.6543 57.1484 26.8027 57.1484 26.9785C57.1484 27.1543 57.0938 27.3008 56.9844 27.418C56.875 27.5352 56.7148 27.5938 56.5039 27.5938C56.293 27.5938 56.1328 27.5352 56.0234 27.418C55.918 27.3008 55.8652 27.1543 55.8652 26.9785ZM59.8027 28.6602L59.8379 29.457C60.3223 28.8477 60.9551 28.543 61.7363 28.543C63.0762 28.543 63.752 29.2988 63.7637 30.8105V35H62.6797V30.8047C62.6758 30.3477 62.5703 30.0098 62.3633 29.791C62.1602 29.5723 61.8418 29.4629 61.4082 29.4629C61.0566 29.4629 60.748 29.5566 60.4824 29.7441C60.2168 29.9316 60.0098 30.1777 59.8613 30.4824V35H58.7773V28.6602H59.8027ZM69.6699 31.6602V35H68.5449V26.4688H71.6914C72.625 26.4688 73.3555 26.707 73.8828 27.1836C74.4141 27.6602 74.6797 28.291 74.6797 29.0762C74.6797 29.9043 74.4199 30.543 73.9004 30.9922C73.3848 31.4375 72.6445 31.6602 71.6797 31.6602H69.6699ZM69.6699 30.7402H71.6914C72.293 30.7402 72.7539 30.5996 73.0742 30.3184C73.3945 30.0332 73.5547 29.623 73.5547 29.0879C73.5547 28.5801 73.3945 28.1738 73.0742 27.8691C72.7539 27.5645 72.3145 27.4062 71.7559 27.3945H69.6699V30.7402ZM79.7891 35C79.7266 34.875 79.6758 34.6523 79.6367 34.332C79.1328 34.8555 78.5312 35.1172 77.832 35.1172C77.207 35.1172 76.6934 34.9414 76.291 34.5898C75.8926 34.2344 75.6934 33.7852 75.6934 33.2422C75.6934 32.582 75.9434 32.0703 76.4434 31.707C76.9473 31.3398 77.6543 31.1562 78.5645 31.1562H79.6191V30.6582C79.6191 30.2793 79.5059 29.9785 79.2793 29.7559C79.0527 29.5293 78.7188 29.416 78.2773 29.416C77.8906 29.416 77.5664 29.5137 77.3047 29.709C77.043 29.9043 76.9121 30.1406 76.9121 30.418H75.8223C75.8223 30.1016 75.9336 29.7969 76.1562 29.5039C76.3828 29.207 76.6875 28.9727 77.0703 28.8008C77.457 28.6289 77.8809 28.543 78.3418 28.543C79.0723 28.543 79.6445 28.7266 80.0586 29.0938C80.4727 29.457 80.6875 29.959 80.7031 30.5996V33.5176C80.7031 34.0996 80.7773 34.5625 80.9258 34.9062V35H79.7891ZM77.9902 34.1738C78.3301 34.1738 78.6523 34.0859 78.957 33.9102C79.2617 33.7344 79.4824 33.5059 79.6191 33.2246V31.9238H78.7695C77.4414 31.9238 76.7773 32.3125 76.7773 33.0898C76.7773 33.4297 76.8906 33.6953 77.1172 33.8867C77.3438 34.0781 77.6348 34.1738 77.9902 34.1738ZM82.1445 31.7773C82.1445 30.7891 82.373 30.0039 82.8301 29.4219C83.2871 28.8359 83.8926 28.543 84.6465 28.543C85.4199 28.543 86.0234 28.8164 86.457 29.3633L86.5098 28.6602H87.5V34.8477C87.5 35.668 87.2559 36.3145 86.7676 36.7871C86.2832 37.2598 85.6309 37.4961 84.8105 37.4961C84.3535 37.4961 83.9062 37.3984 83.4688 37.2031C83.0312 37.0078 82.6973 36.7402 82.4668 36.4004L83.0293 35.75C83.4941 36.3242 84.0625 36.6113 84.7344 36.6113C85.2617 36.6113 85.6719 36.4629 85.9648 36.166C86.2617 35.8691 86.4102 35.4512 86.4102 34.9121V34.3672C85.9766 34.8672 85.3848 35.1172 84.6348 35.1172C83.8926 35.1172 83.291 34.8184 82.8301 34.2207C82.373 33.623 82.1445 32.8086 82.1445 31.7773ZM83.2344 31.9004C83.2344 32.6152 83.3809 33.1777 83.6738 33.5879C83.9668 33.9941 84.377 34.1973 84.9043 34.1973C85.5879 34.1973 86.0898 33.8867 86.4102 33.2656V30.3711C86.0781 29.7656 85.5801 29.4629 84.916 29.4629C84.3887 29.4629 83.9766 29.668 83.6797 30.0781C83.3828 30.4883 83.2344 31.0957 83.2344 31.9004ZM91.7715 35.1172C90.9121 35.1172 90.2129 34.8359 89.6738 34.2734C89.1348 33.707 88.8652 32.9512 88.8652 32.0059V31.8066C88.8652 31.1777 88.9844 30.6172 89.2227 30.125C89.4648 29.6289 89.8008 29.2422 90.2305 28.9648C90.6641 28.6836 91.1328 28.543 91.6367 28.543C92.4609 28.543 93.1016 28.8145 93.5586 29.3574C94.0156 29.9004 94.2441 30.6777 94.2441 31.6895V32.1406H89.9492C89.9648 32.7656 90.1465 33.2715 90.4941 33.6582C90.8457 34.041 91.291 34.2324 91.8301 34.2324C92.2129 34.2324 92.5371 34.1543 92.8027 33.998C93.0684 33.8418 93.3008 33.6348 93.5 33.377L94.1621 33.8926C93.6309 34.709 92.834 35.1172 91.7715 35.1172ZM91.6367 29.4336C91.1992 29.4336 90.832 29.5938 90.5352 29.9141C90.2383 30.2305 90.0547 30.6758 89.9844 31.25H93.1602V31.168C93.1289 30.6172 92.9805 30.1914 92.7148 29.8906C92.4492 29.5859 92.0898 29.4336 91.6367 29.4336Z" fill="black" />
    <rect x="55" y="74" width="200" height="296.471" rx="10" fill="#0184CE" />
    <rect x="65" y="93.7647" width="200" height="296.471" rx="10" fill="#002094" />
    <rect x="75" y="113.529" width="200" height="296.471" rx="10" fill="#5C0094" />
    <path d="M67.5469 90H66.416V86.0566H62.1152V90H60.9902V81.4688H62.1152V85.1367H66.416V81.4688H67.5469V90ZM69.0879 86.7715C69.0879 86.1504 69.209 85.5918 69.4512 85.0957C69.6973 84.5996 70.0371 84.2168 70.4707 83.9473C70.9082 83.6777 71.4062 83.543 71.9648 83.543C72.8281 83.543 73.5254 83.8418 74.0566 84.4395C74.5918 85.0371 74.8594 85.832 74.8594 86.8242V86.9004C74.8594 87.5176 74.7402 88.0723 74.502 88.5645C74.2676 89.0527 73.9297 89.4336 73.4883 89.707C73.0508 89.9805 72.5469 90.1172 71.9766 90.1172C71.1172 90.1172 70.4199 89.8184 69.8848 89.2207C69.3535 88.623 69.0879 87.832 69.0879 86.8477V86.7715ZM70.1777 86.9004C70.1777 87.6035 70.3398 88.168 70.6641 88.5938C70.9922 89.0195 71.4297 89.2324 71.9766 89.2324C72.5273 89.2324 72.9648 89.0176 73.2891 88.5879C73.6133 88.1543 73.7754 87.5488 73.7754 86.7715C73.7754 86.0762 73.6094 85.5137 73.2773 85.084C72.9492 84.6504 72.5117 84.4336 71.9648 84.4336C71.4297 84.4336 70.998 84.6465 70.6699 85.0723C70.3418 85.498 70.1777 86.1074 70.1777 86.9004ZM77.2383 83.6602L77.2676 84.3633C77.7324 83.8164 78.3594 83.543 79.1484 83.543C80.0352 83.543 80.6387 83.8828 80.959 84.5625C81.1699 84.2578 81.4434 84.0117 81.7793 83.8242C82.1191 83.6367 82.5195 83.543 82.9805 83.543C84.3711 83.543 85.0781 84.2793 85.1016 85.752V90H84.0176V85.8164C84.0176 85.3633 83.9141 85.0254 83.707 84.8027C83.5 84.5762 83.1523 84.4629 82.6641 84.4629C82.2617 84.4629 81.9277 84.584 81.6621 84.8262C81.3965 85.0645 81.2422 85.3867 81.1992 85.793V90H80.1094V85.8457C80.1094 84.9238 79.6582 84.4629 78.7559 84.4629C78.0449 84.4629 77.5586 84.7656 77.2969 85.3711V90H76.2129V83.6602H77.2383ZM89.373 90.1172C88.5137 90.1172 87.8145 89.8359 87.2754 89.2734C86.7363 88.707 86.4668 87.9512 86.4668 87.0059V86.8066C86.4668 86.1777 86.5859 85.6172 86.8242 85.125C87.0664 84.6289 87.4023 84.2422 87.832 83.9648C88.2656 83.6836 88.7344 83.543 89.2383 83.543C90.0625 83.543 90.7031 83.8145 91.1602 84.3574C91.6172 84.9004 91.8457 85.6777 91.8457 86.6895V87.1406H87.5508C87.5664 87.7656 87.748 88.2715 88.0957 88.6582C88.4473 89.041 88.8926 89.2324 89.4316 89.2324C89.8145 89.2324 90.1387 89.1543 90.4043 88.998C90.6699 88.8418 90.9023 88.6348 91.1016 88.377L91.7637 88.8926C91.2324 89.709 90.4355 90.1172 89.373 90.1172ZM89.2383 84.4336C88.8008 84.4336 88.4336 84.5938 88.1367 84.9141C87.8398 85.2305 87.6562 85.6758 87.5859 86.25H90.7617V86.168C90.7305 85.6172 90.582 85.1914 90.3164 84.8906C90.0508 84.5859 89.6914 84.4336 89.2383 84.4336ZM97.377 86.6602V90H96.252V81.4688H99.3984C100.332 81.4688 101.062 81.707 101.59 82.1836C102.121 82.6602 102.387 83.291 102.387 84.0762C102.387 84.9043 102.127 85.543 101.607 85.9922C101.092 86.4375 100.352 86.6602 99.3867 86.6602H97.377ZM97.377 85.7402H99.3984C100 85.7402 100.461 85.5996 100.781 85.3184C101.102 85.0332 101.262 84.623 101.262 84.0879C101.262 83.5801 101.102 83.1738 100.781 82.8691C100.461 82.5645 100.021 82.4062 99.4629 82.3945H97.377V85.7402ZM107.496 90C107.434 89.875 107.383 89.6523 107.344 89.332C106.84 89.8555 106.238 90.1172 105.539 90.1172C104.914 90.1172 104.4 89.9414 103.998 89.5898C103.6 89.2344 103.4 88.7852 103.4 88.2422C103.4 87.582 103.65 87.0703 104.15 86.707C104.654 86.3398 105.361 86.1562 106.271 86.1562H107.326V85.6582C107.326 85.2793 107.213 84.9785 106.986 84.7559C106.76 84.5293 106.426 84.416 105.984 84.416C105.598 84.416 105.273 84.5137 105.012 84.709C104.75 84.9043 104.619 85.1406 104.619 85.418H103.529C103.529 85.1016 103.641 84.7969 103.863 84.5039C104.09 84.207 104.395 83.9727 104.777 83.8008C105.164 83.6289 105.588 83.543 106.049 83.543C106.779 83.543 107.352 83.7266 107.766 84.0938C108.18 84.457 108.395 84.959 108.41 85.5996V88.5176C108.41 89.0996 108.484 89.5625 108.633 89.9062V90H107.496ZM105.697 89.1738C106.037 89.1738 106.359 89.0859 106.664 88.9102C106.969 88.7344 107.189 88.5059 107.326 88.2246V86.9238H106.477C105.148 86.9238 104.484 87.3125 104.484 88.0898C104.484 88.4297 104.598 88.6953 104.824 88.8867C105.051 89.0781 105.342 89.1738 105.697 89.1738ZM109.852 86.7773C109.852 85.7891 110.08 85.0039 110.537 84.4219C110.994 83.8359 111.6 83.543 112.354 83.543C113.127 83.543 113.73 83.8164 114.164 84.3633L114.217 83.6602H115.207V89.8477C115.207 90.668 114.963 91.3145 114.475 91.7871C113.99 92.2598 113.338 92.4961 112.518 92.4961C112.061 92.4961 111.613 92.3984 111.176 92.2031C110.738 92.0078 110.404 91.7402 110.174 91.4004L110.736 90.75C111.201 91.3242 111.77 91.6113 112.441 91.6113C112.969 91.6113 113.379 91.4629 113.672 91.166C113.969 90.8691 114.117 90.4512 114.117 89.9121V89.3672C113.684 89.8672 113.092 90.1172 112.342 90.1172C111.6 90.1172 110.998 89.8184 110.537 89.2207C110.08 88.623 109.852 87.8086 109.852 86.7773ZM110.941 86.9004C110.941 87.6152 111.088 88.1777 111.381 88.5879C111.674 88.9941 112.084 89.1973 112.611 89.1973C113.295 89.1973 113.797 88.8867 114.117 88.2656V85.3711C113.785 84.7656 113.287 84.4629 112.623 84.4629C112.096 84.4629 111.684 84.668 111.387 85.0781C111.09 85.4883 110.941 86.0957 110.941 86.9004ZM119.479 90.1172C118.619 90.1172 117.92 89.8359 117.381 89.2734C116.842 88.707 116.572 87.9512 116.572 87.0059V86.8066C116.572 86.1777 116.691 85.6172 116.93 85.125C117.172 84.6289 117.508 84.2422 117.938 83.9648C118.371 83.6836 118.84 83.543 119.344 83.543C120.168 83.543 120.809 83.8145 121.266 84.3574C121.723 84.9004 121.951 85.6777 121.951 86.6895V87.1406H117.656C117.672 87.7656 117.854 88.2715 118.201 88.6582C118.553 89.041 118.998 89.2324 119.537 89.2324C119.92 89.2324 120.244 89.1543 120.51 88.998C120.775 88.8418 121.008 88.6348 121.207 88.377L121.869 88.8926C121.338 89.709 120.541 90.1172 119.479 90.1172ZM119.344 84.4336C118.906 84.4336 118.539 84.5938 118.242 84.9141C117.945 85.2305 117.762 85.6758 117.691 86.25H120.867V86.168C120.836 85.6172 120.688 85.1914 120.422 84.8906C120.156 84.5859 119.797 84.4336 119.344 84.4336Z" fill="black" />
    <path d="M75.5039 105.903C74.5391 105.626 73.8359 105.286 73.3945 104.884C72.957 104.477 72.7383 103.977 72.7383 103.384C72.7383 102.712 73.0059 102.157 73.541 101.72C74.0801 101.278 74.7793 101.057 75.6387 101.057C76.2246 101.057 76.7461 101.171 77.2031 101.397C77.6641 101.624 78.0195 101.936 78.2695 102.335C78.5234 102.733 78.6504 103.169 78.6504 103.641H77.5195C77.5195 103.126 77.3555 102.722 77.0273 102.429C76.6992 102.132 76.2363 101.983 75.6387 101.983C75.084 101.983 74.6504 102.106 74.3379 102.352C74.0293 102.595 73.875 102.932 73.875 103.366C73.875 103.714 74.0215 104.009 74.3145 104.251C74.6113 104.489 75.1133 104.708 75.8203 104.907C76.5312 105.106 77.0859 105.327 77.4844 105.569C77.8867 105.807 78.1836 106.087 78.375 106.407C78.5703 106.727 78.668 107.104 78.668 107.538C78.668 108.229 78.3984 108.784 77.8594 109.202C77.3203 109.616 76.5996 109.823 75.6973 109.823C75.1113 109.823 74.5645 109.712 74.0566 109.489C73.5488 109.263 73.1562 108.954 72.8789 108.563C72.6055 108.173 72.4688 107.729 72.4688 107.233H73.5996C73.5996 107.749 73.7891 108.157 74.168 108.458C74.5508 108.755 75.0605 108.903 75.6973 108.903C76.291 108.903 76.7461 108.782 77.0625 108.54C77.3789 108.298 77.5371 107.968 77.5371 107.55C77.5371 107.132 77.3906 106.809 77.0977 106.583C76.8047 106.352 76.2734 106.126 75.5039 105.903ZM81.416 101.831V103.366H82.5996V104.204H81.416V108.136C81.416 108.389 81.4688 108.581 81.5742 108.71C81.6797 108.835 81.8594 108.897 82.1133 108.897C82.2383 108.897 82.4102 108.874 82.6289 108.827V109.706C82.3438 109.784 82.0664 109.823 81.7969 109.823C81.3125 109.823 80.9473 109.677 80.7012 109.384C80.4551 109.091 80.332 108.675 80.332 108.136V104.204H79.1777V103.366H80.332V101.831H81.416ZM83.4668 106.477C83.4668 105.856 83.5879 105.298 83.8301 104.802C84.0762 104.305 84.416 103.923 84.8496 103.653C85.2871 103.384 85.7852 103.249 86.3438 103.249C87.207 103.249 87.9043 103.548 88.4355 104.145C88.9707 104.743 89.2383 105.538 89.2383 106.53V106.606C89.2383 107.223 89.1191 107.778 88.8809 108.27C88.6465 108.759 88.3086 109.139 87.8672 109.413C87.4297 109.686 86.9258 109.823 86.3555 109.823C85.4961 109.823 84.7988 109.524 84.2637 108.927C83.7324 108.329 83.4668 107.538 83.4668 106.554V106.477ZM84.5566 106.606C84.5566 107.309 84.7188 107.874 85.043 108.3C85.3711 108.725 85.8086 108.938 86.3555 108.938C86.9062 108.938 87.3438 108.723 87.668 108.294C87.9922 107.86 88.1543 107.255 88.1543 106.477C88.1543 105.782 87.9883 105.22 87.6562 104.79C87.3281 104.356 86.8906 104.139 86.3438 104.139C85.8086 104.139 85.377 104.352 85.0488 104.778C84.7207 105.204 84.5566 105.813 84.5566 106.606ZM93.6621 104.339C93.498 104.311 93.3203 104.298 93.1289 104.298C92.418 104.298 91.9355 104.6 91.6816 105.206V109.706H90.5977V103.366H91.6523L91.6699 104.098C92.0254 103.532 92.5293 103.249 93.1816 103.249C93.3926 103.249 93.5527 103.276 93.6621 103.331V104.339ZM97.1777 109.823C96.3184 109.823 95.6191 109.542 95.0801 108.979C94.541 108.413 94.2715 107.657 94.2715 106.712V106.513C94.2715 105.884 94.3906 105.323 94.6289 104.831C94.8711 104.335 95.207 103.948 95.6367 103.671C96.0703 103.389 96.5391 103.249 97.043 103.249C97.8672 103.249 98.5078 103.52 98.9648 104.063C99.4219 104.606 99.6504 105.384 99.6504 106.395V106.847H95.3555C95.3711 107.472 95.5527 107.977 95.9004 108.364C96.252 108.747 96.6973 108.938 97.2363 108.938C97.6191 108.938 97.9434 108.86 98.209 108.704C98.4746 108.548 98.707 108.341 98.9062 108.083L99.5684 108.598C99.0371 109.415 98.2402 109.823 97.1777 109.823ZM97.043 104.139C96.6055 104.139 96.2383 104.3 95.9414 104.62C95.6445 104.936 95.4609 105.382 95.3906 105.956H98.5664V105.874C98.5352 105.323 98.3867 104.897 98.1211 104.597C97.8555 104.292 97.4961 104.139 97.043 104.139ZM105.182 106.366V109.706H104.057V101.175H107.203C108.137 101.175 108.867 101.413 109.395 101.889C109.926 102.366 110.191 102.997 110.191 103.782C110.191 104.61 109.932 105.249 109.412 105.698C108.896 106.143 108.156 106.366 107.191 106.366H105.182ZM105.182 105.446H107.203C107.805 105.446 108.266 105.305 108.586 105.024C108.906 104.739 109.066 104.329 109.066 103.794C109.066 103.286 108.906 102.88 108.586 102.575C108.266 102.27 107.826 102.112 107.268 102.1H105.182V105.446ZM115.301 109.706C115.238 109.581 115.188 109.358 115.148 109.038C114.645 109.561 114.043 109.823 113.344 109.823C112.719 109.823 112.205 109.647 111.803 109.296C111.404 108.94 111.205 108.491 111.205 107.948C111.205 107.288 111.455 106.776 111.955 106.413C112.459 106.046 113.166 105.862 114.076 105.862H115.131V105.364C115.131 104.985 115.018 104.684 114.791 104.462C114.564 104.235 114.23 104.122 113.789 104.122C113.402 104.122 113.078 104.22 112.816 104.415C112.555 104.61 112.424 104.847 112.424 105.124H111.334C111.334 104.807 111.445 104.503 111.668 104.21C111.895 103.913 112.199 103.679 112.582 103.507C112.969 103.335 113.393 103.249 113.854 103.249C114.584 103.249 115.156 103.432 115.57 103.8C115.984 104.163 116.199 104.665 116.215 105.305V108.223C116.215 108.805 116.289 109.268 116.438 109.612V109.706H115.301ZM113.502 108.88C113.842 108.88 114.164 108.792 114.469 108.616C114.773 108.44 114.994 108.212 115.131 107.93V106.63H114.281C112.953 106.63 112.289 107.018 112.289 107.796C112.289 108.136 112.402 108.401 112.629 108.593C112.855 108.784 113.146 108.88 113.502 108.88ZM117.656 106.483C117.656 105.495 117.885 104.71 118.342 104.128C118.799 103.542 119.404 103.249 120.158 103.249C120.932 103.249 121.535 103.522 121.969 104.069L122.021 103.366H123.012V109.554C123.012 110.374 122.768 111.02 122.279 111.493C121.795 111.966 121.143 112.202 120.322 112.202C119.865 112.202 119.418 112.104 118.98 111.909C118.543 111.714 118.209 111.446 117.979 111.106L118.541 110.456C119.006 111.03 119.574 111.317 120.246 111.317C120.773 111.317 121.184 111.169 121.477 110.872C121.773 110.575 121.922 110.157 121.922 109.618V109.073C121.488 109.573 120.896 109.823 120.146 109.823C119.404 109.823 118.803 109.524 118.342 108.927C117.885 108.329 117.656 107.514 117.656 106.483ZM118.746 106.606C118.746 107.321 118.893 107.884 119.186 108.294C119.479 108.7 119.889 108.903 120.416 108.903C121.1 108.903 121.602 108.593 121.922 107.972V105.077C121.59 104.472 121.092 104.169 120.428 104.169C119.9 104.169 119.488 104.374 119.191 104.784C118.895 105.194 118.746 105.802 118.746 106.606ZM127.283 109.823C126.424 109.823 125.725 109.542 125.186 108.979C124.646 108.413 124.377 107.657 124.377 106.712V106.513C124.377 105.884 124.496 105.323 124.734 104.831C124.977 104.335 125.312 103.948 125.742 103.671C126.176 103.389 126.645 103.249 127.148 103.249C127.973 103.249 128.613 103.52 129.07 104.063C129.527 104.606 129.756 105.384 129.756 106.395V106.847H125.461C125.477 107.472 125.658 107.977 126.006 108.364C126.357 108.747 126.803 108.938 127.342 108.938C127.725 108.938 128.049 108.86 128.314 108.704C128.58 108.548 128.812 108.341 129.012 108.083L129.674 108.598C129.143 109.415 128.346 109.823 127.283 109.823ZM127.148 104.139C126.711 104.139 126.344 104.3 126.047 104.62C125.75 104.936 125.566 105.382 125.496 105.956H128.672V105.874C128.641 105.323 128.492 104.897 128.227 104.597C127.961 104.292 127.602 104.139 127.148 104.139Z" fill="black" />
    <path d="M89.5039 123.197C88.5391 122.92 87.8359 122.58 87.3945 122.178C86.957 121.771 86.7383 121.271 86.7383 120.678C86.7383 120.006 87.0059 119.451 87.541 119.014C88.0801 118.572 88.7793 118.352 89.6387 118.352C90.2246 118.352 90.7461 118.465 91.2031 118.691C91.6641 118.918 92.0195 119.23 92.2695 119.629C92.5234 120.027 92.6504 120.463 92.6504 120.936H91.5195C91.5195 120.42 91.3555 120.016 91.0273 119.723C90.6992 119.426 90.2363 119.277 89.6387 119.277C89.084 119.277 88.6504 119.4 88.3379 119.646C88.0293 119.889 87.875 120.227 87.875 120.66C87.875 121.008 88.0215 121.303 88.3145 121.545C88.6113 121.783 89.1133 122.002 89.8203 122.201C90.5312 122.4 91.0859 122.621 91.4844 122.863C91.8867 123.102 92.1836 123.381 92.375 123.701C92.5703 124.021 92.668 124.398 92.668 124.832C92.668 125.523 92.3984 126.078 91.8594 126.496C91.3203 126.91 90.5996 127.117 89.6973 127.117C89.1113 127.117 88.5645 127.006 88.0566 126.783C87.5488 126.557 87.1562 126.248 86.8789 125.857C86.6055 125.467 86.4688 125.023 86.4688 124.527H87.5996C87.5996 125.043 87.7891 125.451 88.168 125.752C88.5508 126.049 89.0605 126.197 89.6973 126.197C90.291 126.197 90.7461 126.076 91.0625 125.834C91.3789 125.592 91.5371 125.262 91.5371 124.844C91.5371 124.426 91.3906 124.104 91.0977 123.877C90.8047 123.646 90.2734 123.42 89.5039 123.197ZM96.5762 127.117C95.7168 127.117 95.0176 126.836 94.4785 126.273C93.9395 125.707 93.6699 124.951 93.6699 124.006V123.807C93.6699 123.178 93.7891 122.617 94.0273 122.125C94.2695 121.629 94.6055 121.242 95.0352 120.965C95.4688 120.684 95.9375 120.543 96.4414 120.543C97.2656 120.543 97.9062 120.814 98.3633 121.357C98.8203 121.9 99.0488 122.678 99.0488 123.689V124.141H94.7539C94.7695 124.766 94.9512 125.271 95.2988 125.658C95.6504 126.041 96.0957 126.232 96.6348 126.232C97.0176 126.232 97.3418 126.154 97.6074 125.998C97.873 125.842 98.1055 125.635 98.3047 125.377L98.9668 125.893C98.4355 126.709 97.6387 127.117 96.5762 127.117ZM96.4414 121.434C96.0039 121.434 95.6367 121.594 95.3398 121.914C95.043 122.23 94.8594 122.676 94.7891 123.25H97.9648V123.168C97.9336 122.617 97.7852 122.191 97.5195 121.891C97.2539 121.586 96.8945 121.434 96.4414 121.434ZM101.779 119.125V120.66H102.963V121.498H101.779V125.43C101.779 125.684 101.832 125.875 101.938 126.004C102.043 126.129 102.223 126.191 102.477 126.191C102.602 126.191 102.773 126.168 102.992 126.121V127C102.707 127.078 102.43 127.117 102.16 127.117C101.676 127.117 101.311 126.971 101.064 126.678C100.818 126.385 100.695 125.969 100.695 125.43V121.498H99.541V120.66H100.695V119.125H101.779ZM105.705 119.125V120.66H106.889V121.498H105.705V125.43C105.705 125.684 105.758 125.875 105.863 126.004C105.969 126.129 106.148 126.191 106.402 126.191C106.527 126.191 106.699 126.168 106.918 126.121V127C106.633 127.078 106.355 127.117 106.086 127.117C105.602 127.117 105.236 126.971 104.99 126.678C104.744 126.385 104.621 125.969 104.621 125.43V121.498H103.467V120.66H104.621V119.125H105.705ZM109.338 127H108.254V120.66H109.338V127ZM108.166 118.979C108.166 118.803 108.219 118.654 108.324 118.533C108.434 118.412 108.594 118.352 108.805 118.352C109.016 118.352 109.176 118.412 109.285 118.533C109.395 118.654 109.449 118.803 109.449 118.979C109.449 119.154 109.395 119.301 109.285 119.418C109.176 119.535 109.016 119.594 108.805 119.594C108.594 119.594 108.434 119.535 108.324 119.418C108.219 119.301 108.166 119.154 108.166 118.979ZM112.104 120.66L112.139 121.457C112.623 120.848 113.256 120.543 114.037 120.543C115.377 120.543 116.053 121.299 116.064 122.811V127H114.98V122.805C114.977 122.348 114.871 122.01 114.664 121.791C114.461 121.572 114.143 121.463 113.709 121.463C113.357 121.463 113.049 121.557 112.783 121.744C112.518 121.932 112.311 122.178 112.162 122.482V127H111.078V120.66H112.104ZM117.441 123.777C117.441 122.789 117.67 122.004 118.127 121.422C118.584 120.836 119.189 120.543 119.943 120.543C120.717 120.543 121.32 120.816 121.754 121.363L121.807 120.66H122.797V126.848C122.797 127.668 122.553 128.314 122.064 128.787C121.58 129.26 120.928 129.496 120.107 129.496C119.65 129.496 119.203 129.398 118.766 129.203C118.328 129.008 117.994 128.74 117.764 128.4L118.326 127.75C118.791 128.324 119.359 128.611 120.031 128.611C120.559 128.611 120.969 128.463 121.262 128.166C121.559 127.869 121.707 127.451 121.707 126.912V126.367C121.273 126.867 120.682 127.117 119.932 127.117C119.189 127.117 118.588 126.818 118.127 126.221C117.67 125.623 117.441 124.809 117.441 123.777ZM118.531 123.9C118.531 124.615 118.678 125.178 118.971 125.588C119.264 125.994 119.674 126.197 120.201 126.197C120.885 126.197 121.387 125.887 121.707 125.266V122.371C121.375 121.766 120.877 121.463 120.213 121.463C119.686 121.463 119.273 121.668 118.977 122.078C118.68 122.488 118.531 123.096 118.531 123.9ZM128.129 125.318C128.129 125.025 128.018 124.799 127.795 124.639C127.576 124.475 127.191 124.334 126.641 124.217C126.094 124.1 125.658 123.959 125.334 123.795C125.014 123.631 124.775 123.436 124.619 123.209C124.467 122.982 124.391 122.713 124.391 122.4C124.391 121.881 124.609 121.441 125.047 121.082C125.488 120.723 126.051 120.543 126.734 120.543C127.453 120.543 128.035 120.729 128.48 121.1C128.93 121.471 129.154 121.945 129.154 122.523H128.064C128.064 122.227 127.938 121.971 127.684 121.756C127.434 121.541 127.117 121.434 126.734 121.434C126.34 121.434 126.031 121.52 125.809 121.691C125.586 121.863 125.475 122.088 125.475 122.365C125.475 122.627 125.578 122.824 125.785 122.957C125.992 123.09 126.365 123.217 126.904 123.338C127.447 123.459 127.887 123.604 128.223 123.771C128.559 123.939 128.807 124.143 128.967 124.381C129.131 124.615 129.213 124.902 129.213 125.242C129.213 125.809 128.986 126.264 128.533 126.607C128.08 126.947 127.492 127.117 126.77 127.117C126.262 127.117 125.812 127.027 125.422 126.848C125.031 126.668 124.725 126.418 124.502 126.098C124.283 125.773 124.174 125.424 124.174 125.049H125.258C125.277 125.412 125.422 125.701 125.691 125.916C125.965 126.127 126.324 126.232 126.77 126.232C127.18 126.232 127.508 126.15 127.754 125.986C128.004 125.818 128.129 125.596 128.129 125.318ZM134.896 123.66V127H133.771V118.469H136.918C137.852 118.469 138.582 118.707 139.109 119.184C139.641 119.66 139.906 120.291 139.906 121.076C139.906 121.904 139.646 122.543 139.127 122.992C138.611 123.438 137.871 123.66 136.906 123.66H134.896ZM134.896 122.74H136.918C137.52 122.74 137.98 122.6 138.301 122.318C138.621 122.033 138.781 121.623 138.781 121.088C138.781 120.58 138.621 120.174 138.301 119.869C137.98 119.564 137.541 119.406 136.982 119.395H134.896V122.74ZM145.016 127C144.953 126.875 144.902 126.652 144.863 126.332C144.359 126.855 143.758 127.117 143.059 127.117C142.434 127.117 141.92 126.941 141.518 126.59C141.119 126.234 140.92 125.785 140.92 125.242C140.92 124.582 141.17 124.07 141.67 123.707C142.174 123.34 142.881 123.156 143.791 123.156H144.846V122.658C144.846 122.279 144.732 121.979 144.506 121.756C144.279 121.529 143.945 121.416 143.504 121.416C143.117 121.416 142.793 121.514 142.531 121.709C142.27 121.904 142.139 122.141 142.139 122.418H141.049C141.049 122.102 141.16 121.797 141.383 121.504C141.609 121.207 141.914 120.973 142.297 120.801C142.684 120.629 143.107 120.543 143.568 120.543C144.299 120.543 144.871 120.727 145.285 121.094C145.699 121.457 145.914 121.959 145.93 122.6V125.518C145.93 126.1 146.004 126.562 146.152 126.906V127H145.016ZM143.217 126.174C143.557 126.174 143.879 126.086 144.184 125.91C144.488 125.734 144.709 125.506 144.846 125.225V123.924H143.996C142.668 123.924 142.004 124.312 142.004 125.09C142.004 125.43 142.117 125.695 142.344 125.887C142.57 126.078 142.861 126.174 143.217 126.174ZM147.371 123.777C147.371 122.789 147.6 122.004 148.057 121.422C148.514 120.836 149.119 120.543 149.873 120.543C150.646 120.543 151.25 120.816 151.684 121.363L151.736 120.66H152.727V126.848C152.727 127.668 152.482 128.314 151.994 128.787C151.51 129.26 150.857 129.496 150.037 129.496C149.58 129.496 149.133 129.398 148.695 129.203C148.258 129.008 147.924 128.74 147.693 128.4L148.256 127.75C148.721 128.324 149.289 128.611 149.961 128.611C150.488 128.611 150.898 128.463 151.191 128.166C151.488 127.869 151.637 127.451 151.637 126.912V126.367C151.203 126.867 150.611 127.117 149.861 127.117C149.119 127.117 148.518 126.818 148.057 126.221C147.6 125.623 147.371 124.809 147.371 123.777ZM148.461 123.9C148.461 124.615 148.607 125.178 148.9 125.588C149.193 125.994 149.604 126.197 150.131 126.197C150.814 126.197 151.316 125.887 151.637 125.266V122.371C151.305 121.766 150.807 121.463 150.143 121.463C149.615 121.463 149.203 121.668 148.906 122.078C148.609 122.488 148.461 123.096 148.461 123.9ZM156.998 127.117C156.139 127.117 155.439 126.836 154.9 126.273C154.361 125.707 154.092 124.951 154.092 124.006V123.807C154.092 123.178 154.211 122.617 154.449 122.125C154.691 121.629 155.027 121.242 155.457 120.965C155.891 120.684 156.359 120.543 156.863 120.543C157.688 120.543 158.328 120.814 158.785 121.357C159.242 121.9 159.471 122.678 159.471 123.689V124.141H155.176C155.191 124.766 155.373 125.271 155.721 125.658C156.072 126.041 156.518 126.232 157.057 126.232C157.439 126.232 157.764 126.154 158.029 125.998C158.295 125.842 158.527 125.635 158.727 125.377L159.389 125.893C158.857 126.709 158.061 127.117 156.998 127.117ZM156.863 121.434C156.426 121.434 156.059 121.594 155.762 121.914C155.465 122.23 155.281 122.676 155.211 123.25H158.387V123.168C158.355 122.617 158.207 122.191 157.941 121.891C157.676 121.586 157.316 121.434 156.863 121.434Z" fill="black" />
    <path d="M40 50C40 44.4772 44.4772 40 50 40H280C285.523 40 290 44.4772 290 50V70H40V50Z" fill="#2CCE9D" />
    <path d="M40 413H290V433C290 438.523 285.523 443 280 443H50C44.4772 443 40 438.523 40 433V413Z" fill="#2CCE9D" />
    <path d="M140.701 56.7734H137.127L136.324 59H135.164L138.422 50.4688H139.406L142.67 59H141.516L140.701 56.7734ZM137.467 55.8477H140.367L138.914 51.8574L137.467 55.8477ZM149.004 55.9004C149.004 56.8652 148.783 57.6426 148.342 58.2324C147.9 58.8223 147.303 59.1172 146.549 59.1172C145.779 59.1172 145.174 58.873 144.732 58.3848V61.4375H143.648V52.6602H144.639L144.691 53.3633C145.133 52.8164 145.746 52.543 146.531 52.543C147.293 52.543 147.895 52.8301 148.336 53.4043C148.781 53.9785 149.004 54.7773 149.004 55.8008V55.9004ZM147.92 55.7773C147.92 55.0625 147.768 54.498 147.463 54.084C147.158 53.6699 146.74 53.4629 146.209 53.4629C145.553 53.4629 145.061 53.7539 144.732 54.3359V57.3652C145.057 57.9434 145.553 58.2324 146.221 58.2324C146.74 58.2324 147.152 58.0273 147.457 57.6172C147.766 57.2031 147.92 56.5898 147.92 55.7773ZM155.742 55.9004C155.742 56.8652 155.521 57.6426 155.08 58.2324C154.639 58.8223 154.041 59.1172 153.287 59.1172C152.518 59.1172 151.912 58.873 151.471 58.3848V61.4375H150.387V52.6602H151.377L151.43 53.3633C151.871 52.8164 152.484 52.543 153.27 52.543C154.031 52.543 154.633 52.8301 155.074 53.4043C155.52 53.9785 155.742 54.7773 155.742 55.8008V55.9004ZM154.658 55.7773C154.658 55.0625 154.506 54.498 154.201 54.084C153.896 53.6699 153.479 53.4629 152.947 53.4629C152.291 53.4629 151.799 53.7539 151.471 54.3359V57.3652C151.795 57.9434 152.291 58.2324 152.959 58.2324C153.479 58.2324 153.891 58.0273 154.195 57.6172C154.504 57.2031 154.658 56.5898 154.658 55.7773ZM160.271 59V50.4688H163.061C163.986 50.4688 164.682 50.6602 165.146 51.043C165.615 51.4258 165.85 51.9922 165.85 52.7422C165.85 53.1406 165.736 53.4941 165.51 53.8027C165.283 54.1074 164.975 54.3438 164.584 54.5117C165.045 54.6406 165.408 54.8867 165.674 55.25C165.943 55.6094 166.078 56.0391 166.078 56.5391C166.078 57.3047 165.83 57.9062 165.334 58.3438C164.838 58.7812 164.137 59 163.23 59H160.271ZM161.396 55.0098V58.0801H163.254C163.777 58.0801 164.189 57.9453 164.49 57.6758C164.795 57.4023 164.947 57.0273 164.947 56.5508C164.947 55.5234 164.389 55.0098 163.271 55.0098H161.396ZM161.396 54.1074H163.096C163.588 54.1074 163.98 53.9844 164.273 53.7383C164.57 53.4922 164.719 53.1582 164.719 52.7363C164.719 52.2676 164.582 51.9277 164.309 51.7168C164.035 51.502 163.619 51.3945 163.061 51.3945H161.396V54.1074ZM171.492 59C171.43 58.875 171.379 58.6523 171.34 58.332C170.836 58.8555 170.234 59.1172 169.535 59.1172C168.91 59.1172 168.396 58.9414 167.994 58.5898C167.596 58.2344 167.396 57.7852 167.396 57.2422C167.396 56.582 167.646 56.0703 168.146 55.707C168.65 55.3398 169.357 55.1562 170.268 55.1562H171.322V54.6582C171.322 54.2793 171.209 53.9785 170.982 53.7559C170.756 53.5293 170.422 53.416 169.98 53.416C169.594 53.416 169.27 53.5137 169.008 53.709C168.746 53.9043 168.615 54.1406 168.615 54.418H167.525C167.525 54.1016 167.637 53.7969 167.859 53.5039C168.086 53.207 168.391 52.9727 168.773 52.8008C169.16 52.6289 169.584 52.543 170.045 52.543C170.775 52.543 171.348 52.7266 171.762 53.0938C172.176 53.457 172.391 53.959 172.406 54.5996V57.5176C172.406 58.0996 172.48 58.5625 172.629 58.9062V59H171.492ZM169.693 58.1738C170.033 58.1738 170.355 58.0859 170.66 57.9102C170.965 57.7344 171.186 57.5059 171.322 57.2246V55.9238H170.473C169.145 55.9238 168.48 56.3125 168.48 57.0898C168.48 57.4297 168.594 57.6953 168.82 57.8867C169.047 58.0781 169.338 58.1738 169.693 58.1738ZM177.17 53.6328C177.006 53.6055 176.828 53.5918 176.637 53.5918C175.926 53.5918 175.443 53.8945 175.189 54.5V59H174.105V52.6602H175.16L175.178 53.3926C175.533 52.8262 176.037 52.543 176.689 52.543C176.9 52.543 177.061 52.5703 177.17 52.625V53.6328Z" fill="black" />
    <path d="M105.99 432V423.469H108.779C109.705 423.469 110.4 423.66 110.865 424.043C111.334 424.426 111.568 424.992 111.568 425.742C111.568 426.141 111.455 426.494 111.229 426.803C111.002 427.107 110.693 427.344 110.303 427.512C110.764 427.641 111.127 427.887 111.393 428.25C111.662 428.609 111.797 429.039 111.797 429.539C111.797 430.305 111.549 430.906 111.053 431.344C110.557 431.781 109.855 432 108.949 432H105.99ZM107.115 428.01V431.08H108.973C109.496 431.08 109.908 430.945 110.209 430.676C110.514 430.402 110.666 430.027 110.666 429.551C110.666 428.523 110.107 428.01 108.99 428.01H107.115ZM107.115 427.107H108.814C109.307 427.107 109.699 426.984 109.992 426.738C110.289 426.492 110.438 426.158 110.438 425.736C110.438 425.268 110.301 424.928 110.027 424.717C109.754 424.502 109.338 424.395 108.779 424.395H107.115V427.107ZM113.01 428.771C113.01 428.15 113.131 427.592 113.373 427.096C113.619 426.6 113.959 426.217 114.393 425.947C114.83 425.678 115.328 425.543 115.887 425.543C116.75 425.543 117.447 425.842 117.979 426.439C118.514 427.037 118.781 427.832 118.781 428.824V428.9C118.781 429.518 118.662 430.072 118.424 430.564C118.189 431.053 117.852 431.434 117.41 431.707C116.973 431.98 116.469 432.117 115.898 432.117C115.039 432.117 114.342 431.818 113.807 431.221C113.275 430.623 113.01 429.832 113.01 428.848V428.771ZM114.1 428.9C114.1 429.604 114.262 430.168 114.586 430.594C114.914 431.02 115.352 431.232 115.898 431.232C116.449 431.232 116.887 431.018 117.211 430.588C117.535 430.154 117.697 429.549 117.697 428.771C117.697 428.076 117.531 427.514 117.199 427.084C116.871 426.65 116.434 426.434 115.887 426.434C115.352 426.434 114.92 426.646 114.592 427.072C114.264 427.498 114.1 428.107 114.1 428.9ZM121.611 424.125V425.66H122.795V426.498H121.611V430.43C121.611 430.684 121.664 430.875 121.77 431.004C121.875 431.129 122.055 431.191 122.309 431.191C122.434 431.191 122.605 431.168 122.824 431.121V432C122.539 432.078 122.262 432.117 121.992 432.117C121.508 432.117 121.143 431.971 120.896 431.678C120.65 431.385 120.527 430.969 120.527 430.43V426.498H119.373V425.66H120.527V424.125H121.611ZM125.537 424.125V425.66H126.721V426.498H125.537V430.43C125.537 430.684 125.59 430.875 125.695 431.004C125.801 431.129 125.98 431.191 126.234 431.191C126.359 431.191 126.531 431.168 126.75 431.121V432C126.465 432.078 126.188 432.117 125.918 432.117C125.434 432.117 125.068 431.971 124.822 431.678C124.576 431.385 124.453 430.969 124.453 430.43V426.498H123.299V425.66H124.453V424.125H125.537ZM127.588 428.771C127.588 428.15 127.709 427.592 127.951 427.096C128.197 426.6 128.537 426.217 128.971 425.947C129.408 425.678 129.906 425.543 130.465 425.543C131.328 425.543 132.025 425.842 132.557 426.439C133.092 427.037 133.359 427.832 133.359 428.824V428.9C133.359 429.518 133.24 430.072 133.002 430.564C132.768 431.053 132.43 431.434 131.988 431.707C131.551 431.98 131.047 432.117 130.477 432.117C129.617 432.117 128.92 431.818 128.385 431.221C127.854 430.623 127.588 429.832 127.588 428.848V428.771ZM128.678 428.9C128.678 429.604 128.84 430.168 129.164 430.594C129.492 431.02 129.93 431.232 130.477 431.232C131.027 431.232 131.465 431.018 131.789 430.588C132.113 430.154 132.275 429.549 132.275 428.771C132.275 428.076 132.109 427.514 131.777 427.084C131.449 426.65 131.012 426.434 130.465 426.434C129.93 426.434 129.498 426.646 129.17 427.072C128.842 427.498 128.678 428.107 128.678 428.9ZM135.738 425.66L135.768 426.363C136.232 425.816 136.859 425.543 137.648 425.543C138.535 425.543 139.139 425.883 139.459 426.562C139.67 426.258 139.943 426.012 140.279 425.824C140.619 425.637 141.02 425.543 141.48 425.543C142.871 425.543 143.578 426.279 143.602 427.752V432H142.518V427.816C142.518 427.363 142.414 427.025 142.207 426.803C142 426.576 141.652 426.463 141.164 426.463C140.762 426.463 140.428 426.584 140.162 426.826C139.896 427.064 139.742 427.387 139.699 427.793V432H138.609V427.846C138.609 426.924 138.158 426.463 137.256 426.463C136.545 426.463 136.059 426.766 135.797 427.371V432H134.713V425.66H135.738ZM154.945 432H153.814L149.52 425.426V432H148.389V423.469H149.52L153.826 430.072V423.469H154.945V432ZM160.688 432C160.625 431.875 160.574 431.652 160.535 431.332C160.031 431.855 159.43 432.117 158.73 432.117C158.105 432.117 157.592 431.941 157.189 431.59C156.791 431.234 156.592 430.785 156.592 430.242C156.592 429.582 156.842 429.07 157.342 428.707C157.846 428.34 158.553 428.156 159.463 428.156H160.518V427.658C160.518 427.279 160.404 426.979 160.178 426.756C159.951 426.529 159.617 426.416 159.176 426.416C158.789 426.416 158.465 426.514 158.203 426.709C157.941 426.904 157.811 427.141 157.811 427.418H156.721C156.721 427.102 156.832 426.797 157.055 426.504C157.281 426.207 157.586 425.973 157.969 425.801C158.355 425.629 158.779 425.543 159.24 425.543C159.971 425.543 160.543 425.727 160.957 426.094C161.371 426.457 161.586 426.959 161.602 427.6V430.518C161.602 431.1 161.676 431.562 161.824 431.906V432H160.688ZM158.889 431.174C159.229 431.174 159.551 431.086 159.855 430.91C160.16 430.734 160.381 430.506 160.518 430.225V428.924H159.668C158.34 428.924 157.676 429.312 157.676 430.09C157.676 430.43 157.789 430.695 158.016 430.887C158.242 431.078 158.533 431.174 158.889 431.174ZM165.299 430.529L166.869 425.66H167.977L165.703 432H164.877L162.58 425.66H163.688L165.299 430.529ZM170.197 432H169.113V425.66H170.197V432ZM169.025 423.979C169.025 423.803 169.078 423.654 169.184 423.533C169.293 423.412 169.453 423.352 169.664 423.352C169.875 423.352 170.035 423.412 170.145 423.533C170.254 423.654 170.309 423.803 170.309 423.979C170.309 424.154 170.254 424.301 170.145 424.418C170.035 424.535 169.875 424.594 169.664 424.594C169.453 424.594 169.293 424.535 169.184 424.418C169.078 424.301 169.025 424.154 169.025 423.979ZM171.68 428.777C171.68 427.789 171.908 427.004 172.365 426.422C172.822 425.836 173.428 425.543 174.182 425.543C174.955 425.543 175.559 425.816 175.992 426.363L176.045 425.66H177.035V431.848C177.035 432.668 176.791 433.314 176.303 433.787C175.818 434.26 175.166 434.496 174.346 434.496C173.889 434.496 173.441 434.398 173.004 434.203C172.566 434.008 172.232 433.74 172.002 433.4L172.564 432.75C173.029 433.324 173.598 433.611 174.27 433.611C174.797 433.611 175.207 433.463 175.5 433.166C175.797 432.869 175.945 432.451 175.945 431.912V431.367C175.512 431.867 174.92 432.117 174.17 432.117C173.428 432.117 172.826 431.818 172.365 431.221C171.908 430.623 171.68 429.809 171.68 428.777ZM172.77 428.9C172.77 429.615 172.916 430.178 173.209 430.588C173.502 430.994 173.912 431.197 174.439 431.197C175.123 431.197 175.625 430.887 175.945 430.266V427.371C175.613 426.766 175.115 426.463 174.451 426.463C173.924 426.463 173.512 426.668 173.215 427.078C172.918 427.488 172.77 428.096 172.77 428.9ZM182.59 432C182.527 431.875 182.477 431.652 182.438 431.332C181.934 431.855 181.332 432.117 180.633 432.117C180.008 432.117 179.494 431.941 179.092 431.59C178.693 431.234 178.494 430.785 178.494 430.242C178.494 429.582 178.744 429.07 179.244 428.707C179.748 428.34 180.455 428.156 181.365 428.156H182.42V427.658C182.42 427.279 182.307 426.979 182.08 426.756C181.854 426.529 181.52 426.416 181.078 426.416C180.691 426.416 180.367 426.514 180.105 426.709C179.844 426.904 179.713 427.141 179.713 427.418H178.623C178.623 427.102 178.734 426.797 178.957 426.504C179.184 426.207 179.488 425.973 179.871 425.801C180.258 425.629 180.682 425.543 181.143 425.543C181.873 425.543 182.445 425.727 182.859 426.094C183.273 426.457 183.488 426.959 183.504 427.6V430.518C183.504 431.1 183.578 431.562 183.727 431.906V432H182.59ZM180.791 431.174C181.131 431.174 181.453 431.086 181.758 430.91C182.062 430.734 182.283 430.506 182.42 430.225V428.924H181.57C180.242 428.924 179.578 429.312 179.578 430.09C179.578 430.43 179.691 430.695 179.918 430.887C180.145 431.078 180.436 431.174 180.791 431.174ZM186.674 424.125V425.66H187.857V426.498H186.674V430.43C186.674 430.684 186.727 430.875 186.832 431.004C186.938 431.129 187.117 431.191 187.371 431.191C187.496 431.191 187.668 431.168 187.887 431.121V432C187.602 432.078 187.324 432.117 187.055 432.117C186.57 432.117 186.205 431.971 185.959 431.678C185.713 431.385 185.59 430.969 185.59 430.43V426.498H184.436V425.66H185.59V424.125H186.674ZM190.307 432H189.223V425.66H190.307V432ZM189.135 423.979C189.135 423.803 189.188 423.654 189.293 423.533C189.402 423.412 189.562 423.352 189.773 423.352C189.984 423.352 190.145 423.412 190.254 423.533C190.363 423.654 190.418 423.803 190.418 423.979C190.418 424.154 190.363 424.301 190.254 424.418C190.145 424.535 189.984 424.594 189.773 424.594C189.562 424.594 189.402 424.535 189.293 424.418C189.188 424.301 189.135 424.154 189.135 423.979ZM191.76 428.771C191.76 428.15 191.881 427.592 192.123 427.096C192.369 426.6 192.709 426.217 193.143 425.947C193.58 425.678 194.078 425.543 194.637 425.543C195.5 425.543 196.197 425.842 196.729 426.439C197.264 427.037 197.531 427.832 197.531 428.824V428.9C197.531 429.518 197.412 430.072 197.174 430.564C196.939 431.053 196.602 431.434 196.16 431.707C195.723 431.98 195.219 432.117 194.648 432.117C193.789 432.117 193.092 431.818 192.557 431.221C192.025 430.623 191.76 429.832 191.76 428.848V428.771ZM192.85 428.9C192.85 429.604 193.012 430.168 193.336 430.594C193.664 431.02 194.102 431.232 194.648 431.232C195.199 431.232 195.637 431.018 195.961 430.588C196.285 430.154 196.447 429.549 196.447 428.771C196.447 428.076 196.281 427.514 195.949 427.084C195.621 426.65 195.184 426.434 194.637 426.434C194.102 426.434 193.67 426.646 193.342 427.072C193.014 427.498 192.85 428.107 192.85 428.9ZM199.916 425.66L199.951 426.457C200.436 425.848 201.068 425.543 201.85 425.543C203.189 425.543 203.865 426.299 203.877 427.811V432H202.793V427.805C202.789 427.348 202.684 427.01 202.477 426.791C202.273 426.572 201.955 426.463 201.521 426.463C201.17 426.463 200.861 426.557 200.596 426.744C200.33 426.932 200.123 427.178 199.975 427.482V432H198.891V425.66H199.916ZM208.658 432V423.469H211.447C212.373 423.469 213.068 423.66 213.533 424.043C214.002 424.426 214.236 424.992 214.236 425.742C214.236 426.141 214.123 426.494 213.896 426.803C213.67 427.107 213.361 427.344 212.971 427.512C213.432 427.641 213.795 427.887 214.061 428.25C214.33 428.609 214.465 429.039 214.465 429.539C214.465 430.305 214.217 430.906 213.721 431.344C213.225 431.781 212.523 432 211.617 432H208.658ZM209.783 428.01V431.08H211.641C212.164 431.08 212.576 430.945 212.877 430.676C213.182 430.402 213.334 430.027 213.334 429.551C213.334 428.523 212.775 428.01 211.658 428.01H209.783ZM209.783 427.107H211.482C211.975 427.107 212.367 426.984 212.66 426.738C212.957 426.492 213.105 426.158 213.105 425.736C213.105 425.268 212.969 424.928 212.695 424.717C212.422 424.502 212.006 424.395 211.447 424.395H209.783V427.107ZM219.879 432C219.816 431.875 219.766 431.652 219.727 431.332C219.223 431.855 218.621 432.117 217.922 432.117C217.297 432.117 216.783 431.941 216.381 431.59C215.982 431.234 215.783 430.785 215.783 430.242C215.783 429.582 216.033 429.07 216.533 428.707C217.037 428.34 217.744 428.156 218.654 428.156H219.709V427.658C219.709 427.279 219.596 426.979 219.369 426.756C219.143 426.529 218.809 426.416 218.367 426.416C217.98 426.416 217.656 426.514 217.395 426.709C217.133 426.904 217.002 427.141 217.002 427.418H215.912C215.912 427.102 216.023 426.797 216.246 426.504C216.473 426.207 216.777 425.973 217.16 425.801C217.547 425.629 217.971 425.543 218.432 425.543C219.162 425.543 219.734 425.727 220.148 426.094C220.562 426.457 220.777 426.959 220.793 427.6V430.518C220.793 431.1 220.867 431.562 221.016 431.906V432H219.879ZM218.08 431.174C218.42 431.174 218.742 431.086 219.047 430.91C219.352 430.734 219.572 430.506 219.709 430.225V428.924H218.859C217.531 428.924 216.867 429.312 216.867 430.09C216.867 430.43 216.98 430.695 217.207 430.887C217.434 431.078 217.725 431.174 218.08 431.174ZM225.557 426.633C225.393 426.605 225.215 426.592 225.023 426.592C224.312 426.592 223.83 426.895 223.576 427.5V432H222.492V425.66H223.547L223.564 426.393C223.92 425.826 224.424 425.543 225.076 425.543C225.287 425.543 225.447 425.57 225.557 425.625V426.633Z" fill="black" />
</svg>
